<svg width="1064" height="907" version="1.1" xmlns="http://www.w3.org/2000/svg" desc="Created with imagetracer.js version 1.2.6" ><path fill="rgb(0,0,0)" stroke="rgb(0,0,0)" stroke-width="1" opacity="0" d="M 0 0 L 1064 0 L 1064 907 L 0 907 L 0 0 Z M 907 129 L 243 612 L 51 456 L 45 452 L 257 776 L 907 131 L 907 129 Z M 982 129 L 858 252 L 793 317 L 793 775 L 792 776 L 982 776 L 982 129 Z M 738 372 L 575 533 L 575 776 L 738 776 L 738 372 Z M 521 587 L 331 776 L 521 776 L 521 587 Z " /><path fill="rgb(254,214,177)" stroke="rgb(254,214,177)" stroke-width="1" opacity="0.5215686274509804" d="M 906.5 129 L 907 130.5 L 256.5 776 L 255.5 774 L 256.5 775 L 312.5 719 L 901 135.5 L 899.5 135 L 242.5 613 L 56.5 461 L 50 457 L 57 468.5 L 55 467.5 L 45 451.5 L 50.5 456 L 242.5 612 L 906.5 129 Z " /><path fill="rgb(254,214,177)" stroke="rgb(254,214,177)" stroke-width="1" opacity="0.5215686274509804" d="M 981.5 129 L 982 131.5 L 982 775.5 L 981.5 776 L 792.5 776 L 792.5 775 L 980.5 775 L 981 774.5 L 981 131.5 L 850.5 261 L 793.5 317 L 857.5 252 L 981.5 129 Z " /><path fill="rgb(254,214,177)" stroke="rgb(254,214,177)" stroke-width="1" opacity="0.5215686274509804" d="M 737.5 372 L 738 776 L 575 776 L 575 532.5 L 737.5 372 Z M 737 374 L 576 534 L 576 775 L 737 775 L 737 374 Z " /><path fill="rgb(254,214,177)" stroke="rgb(254,214,177)" stroke-width="1" opacity="0.5215686274509804" d="M 57.5 470 L 58.5 472 L 57.5 470 Z " /><path fill="rgb(254,214,177)" stroke="rgb(254,214,177)" stroke-width="1" opacity="0.5215686274509804" d="M 59.5 473 L 72 491.5 L 70 490.5 L 59.5 473 Z " /><path fill="rgb(254,214,177)" stroke="rgb(254,214,177)" stroke-width="1" opacity="0.5215686274509804" d="M 72.5 493 L 85 511.5 L 83 510.5 L 72.5 493 Z " /><path fill="rgb(254,214,177)" stroke="rgb(254,214,177)" stroke-width="1" opacity="0.5215686274509804" d="M 85.5 513 L 86.5 515 L 85.5 513 Z " /><path fill="rgb(254,214,177)" stroke="rgb(254,214,177)" stroke-width="1" opacity="0.5215686274509804" d="M 87.5 516 L 98 531.5 L 96 530.5 L 87.5 516 Z " /><path fill="rgb(254,214,177)" stroke="rgb(254,214,177)" stroke-width="1" opacity="0.5215686274509804" d="M 98.5 533 L 99.5 535 L 98.5 533 Z " /><path fill="rgb(254,214,177)" stroke="rgb(254,214,177)" stroke-width="1" opacity="0.5215686274509804" d="M 100.5 536 L 101.5 538 L 100.5 536 Z " /><path fill="rgb(254,214,177)" stroke="rgb(254,214,177)" stroke-width="1" opacity="0.5215686274509804" d="M 102.5 539 L 113 554.5 L 111 553.5 L 102.5 539 Z " /><path fill="rgb(254,214,177)" stroke="rgb(254,214,177)" stroke-width="1" opacity="0.5215686274509804" d="M 113.5 556 L 114.5 558 L 113.5 556 Z " /><path fill="rgb(254,214,177)" stroke="rgb(254,214,177)" stroke-width="1" opacity="0.5215686274509804" d="M 115.5 559 L 116.5 561 L 115.5 559 Z " /><path fill="rgb(254,214,177)" stroke="rgb(254,214,177)" stroke-width="1" opacity="0.5215686274509804" d="M 117.5 562 L 126 574.5 L 124 573.5 L 117.5 562 Z " /><path fill="rgb(254,214,177)" stroke="rgb(254,214,177)" stroke-width="1" opacity="0.5215686274509804" d="M 126.5 576 L 127.5 578 L 126.5 576 Z " /><path fill="rgb(254,214,177)" stroke="rgb(254,214,177)" stroke-width="1" opacity="0.5215686274509804" d="M 128.5 579 L 129.5 581 L 128.5 579 Z " /><path fill="rgb(254,214,177)" stroke="rgb(254,214,177)" stroke-width="1" opacity="0.5215686274509804" d="M 130.5 582 L 131.5 584 L 130.5 582 Z " /><path fill="rgb(254,214,177)" stroke="rgb(254,214,177)" stroke-width="1" opacity="0.5215686274509804" d="M 132.5 585 L 141 597.5 L 139 596.5 L 132.5 585 Z " /><path fill="rgb(254,214,177)" stroke="rgb(254,214,177)" stroke-width="1" opacity="0.5215686274509804" d="M 520.5 587 L 521 776 L 331 775.5 L 520.5 587 Z M 520 589 L 333 775 L 520 775 L 520 589 Z " /><path fill="rgb(254,214,177)" stroke="rgb(254,214,177)" stroke-width="1" opacity="0.5215686274509804" d="M 141.5 599 L 142.5 601 L 141.5 599 Z " /><path fill="rgb(254,214,177)" stroke="rgb(254,214,177)" stroke-width="1" opacity="0.5215686274509804" d="M 143.5 602 L 144.5 604 L 143.5 602 Z " /><path fill="rgb(254,214,177)" stroke="rgb(254,214,177)" stroke-width="1" opacity="0.5215686274509804" d="M 145.5 605 L 146.5 607 L 145.5 605 Z " /><path fill="rgb(254,214,177)" stroke="rgb(254,214,177)" stroke-width="1" opacity="0.5215686274509804" d="M 147.5 608 L 154 617.5 L 152 616.5 L 147.5 608 Z " /><path fill="rgb(254,214,177)" stroke="rgb(254,214,177)" stroke-width="1" opacity="0.5215686274509804" d="M 154.5 619 L 155.5 621 L 154.5 619 Z " /><path fill="rgb(254,214,177)" stroke="rgb(254,214,177)" stroke-width="1" opacity="0.5215686274509804" d="M 156.5 622 L 157.5 624 L 156.5 622 Z " /><path fill="rgb(254,214,177)" stroke="rgb(254,214,177)" stroke-width="1" opacity="0.5215686274509804" d="M 158.5 625 L 159.5 627 L 158.5 625 Z " /><path fill="rgb(254,214,177)" stroke="rgb(254,214,177)" stroke-width="1" opacity="0.5215686274509804" d="M 160.5 628 L 169 640.5 L 167 639.5 L 160.5 628 Z " /><path fill="rgb(254,214,177)" stroke="rgb(254,214,177)" stroke-width="1" opacity="0.5215686274509804" d="M 169.5 642 L 170.5 644 L 169.5 642 Z " /><path fill="rgb(254,214,177)" stroke="rgb(254,214,177)" stroke-width="1" opacity="0.5215686274509804" d="M 171.5 645 L 172.5 647 L 171.5 645 Z " /><path fill="rgb(254,214,177)" stroke="rgb(254,214,177)" stroke-width="1" opacity="0.5215686274509804" d="M 173.5 648 L 174.5 650 L 173.5 648 Z " /><path fill="rgb(254,214,177)" stroke="rgb(254,214,177)" stroke-width="1" opacity="0.5215686274509804" d="M 175.5 651 L 182 660.5 L 180 659.5 L 175.5 651 Z " /><path fill="rgb(254,214,177)" stroke="rgb(254,214,177)" stroke-width="1" opacity="0.5215686274509804" d="M 182.5 662 L 183.5 664 L 182.5 662 Z " /><path fill="rgb(254,214,177)" stroke="rgb(254,214,177)" stroke-width="1" opacity="0.5215686274509804" d="M 184.5 665 L 185.5 667 L 184.5 665 Z " /><path fill="rgb(254,214,177)" stroke="rgb(254,214,177)" stroke-width="1" opacity="0.5215686274509804" d="M 186.5 668 L 187.5 670 L 186.5 668 Z " /><path fill="rgb(254,214,177)" stroke="rgb(254,214,177)" stroke-width="1" opacity="0.5215686274509804" d="M 188.5 671 L 189.5 673 L 188.5 671 Z " /><path fill="rgb(254,214,177)" stroke="rgb(254,214,177)" stroke-width="1" opacity="0.5215686274509804" d="M 190.5 674 L 195 680.5 L 193 679.5 L 190.5 674 Z " /><path fill="rgb(254,214,177)" stroke="rgb(254,214,177)" stroke-width="1" opacity="0.5215686274509804" d="M 195.5 682 L 196.5 684 L 195.5 682 Z " /><path fill="rgb(254,214,177)" stroke="rgb(254,214,177)" stroke-width="1" opacity="0.5215686274509804" d="M 197.5 685 L 198.5 687 L 197.5 685 Z " /><path fill="rgb(254,214,177)" stroke="rgb(254,214,177)" stroke-width="1" opacity="0.5215686274509804" d="M 199.5 688 L 200.5 690 L 199.5 688 Z " /><path fill="rgb(254,214,177)" stroke="rgb(254,214,177)" stroke-width="1" opacity="0.5215686274509804" d="M 201.5 691 L 202.5 693 L 201.5 691 Z " /><path fill="rgb(254,214,177)" stroke="rgb(254,214,177)" stroke-width="1" opacity="0.5215686274509804" d="M 203.5 694 L 204.5 696 L 203.5 694 Z " /><path fill="rgb(254,214,177)" stroke="rgb(254,214,177)" stroke-width="1" opacity="0.5215686274509804" d="M 205.5 697 L 210 703.5 L 208 702.5 L 205.5 697 Z " /><path fill="rgb(254,214,177)" stroke="rgb(254,214,177)" stroke-width="1" opacity="0.5215686274509804" d="M 210.5 705 L 211.5 707 L 210.5 705 Z " /><path fill="rgb(254,214,177)" stroke="rgb(254,214,177)" stroke-width="1" opacity="0.5215686274509804" d="M 212.5 708 L 213.5 710 L 212.5 708 Z " /><path fill="rgb(254,214,177)" stroke="rgb(254,214,177)" stroke-width="1" opacity="0.5215686274509804" d="M 214.5 711 L 215.5 713 L 214.5 711 Z " /><path fill="rgb(254,214,177)" stroke="rgb(254,214,177)" stroke-width="1" opacity="0.5215686274509804" d="M 216.5 714 L 217.5 716 L 216.5 714 Z " /><path fill="rgb(254,214,177)" stroke="rgb(254,214,177)" stroke-width="1" opacity="0.5215686274509804" d="M 218.5 717 L 219.5 719 L 218.5 717 Z " /><path fill="rgb(254,214,177)" stroke="rgb(254,214,177)" stroke-width="1" opacity="0.5215686274509804" d="M 220.5 720 L 225 726.5 L 223 725.5 L 220.5 720 Z " /><path fill="rgb(254,214,177)" stroke="rgb(254,214,177)" stroke-width="1" opacity="0.5215686274509804" d="M 225.5 728 L 226.5 730 L 225.5 728 Z " /><path fill="rgb(254,214,177)" stroke="rgb(254,214,177)" stroke-width="1" opacity="0.5215686274509804" d="M 227.5 731 L 228.5 733 L 227.5 731 Z " /><path fill="rgb(254,214,177)" stroke="rgb(254,214,177)" stroke-width="1" opacity="0.5215686274509804" d="M 229.5 734 L 230.5 736 L 229.5 734 Z " /><path fill="rgb(254,214,177)" stroke="rgb(254,214,177)" stroke-width="1" opacity="0.5215686274509804" d="M 231.5 737 L 232.5 739 L 231.5 737 Z " /><path fill="rgb(254,214,177)" stroke="rgb(254,214,177)" stroke-width="1" opacity="0.5215686274509804" d="M 233.5 740 L 234.5 742 L 233.5 740 Z " /><path fill="rgb(254,214,177)" stroke="rgb(254,214,177)" stroke-width="1" opacity="0.5215686274509804" d="M 235.5 743 L 240 749.5 L 238 748.5 L 235.5 743 Z " /><path fill="rgb(254,214,177)" stroke="rgb(254,214,177)" stroke-width="1" opacity="0.5215686274509804" d="M 240.5 751 L 241.5 753 L 240.5 751 Z " /><path fill="rgb(254,214,177)" stroke="rgb(254,214,177)" stroke-width="1" opacity="0.5215686274509804" d="M 242.5 754 L 243.5 756 L 242.5 754 Z " /><path fill="rgb(254,214,177)" stroke="rgb(254,214,177)" stroke-width="1" opacity="0.5215686274509804" d="M 244.5 757 L 245.5 759 L 244.5 757 Z " /><path fill="rgb(254,214,177)" stroke="rgb(254,214,177)" stroke-width="1" opacity="0.5215686274509804" d="M 246.5 760 L 247.5 762 L 246.5 760 Z " /><path fill="rgb(254,214,177)" stroke="rgb(254,214,177)" stroke-width="1" opacity="0.5215686274509804" d="M 248.5 763 L 253 769.5 L 251 768.5 L 248.5 763 Z " /><path fill="rgb(254,214,177)" stroke="rgb(254,214,177)" stroke-width="1" opacity="0.5215686274509804" d="M 253.5 771 L 254.5 773 L 253.5 771 Z " /><path fill="rgb(254,177,107)" stroke="rgb(254,177,107)" stroke-width="1" opacity="0.996078431372549" d="M 981.5 130 L 964.5 148 L 981.5 130 Z " /><path fill="rgb(254,177,107)" stroke="rgb(254,177,107)" stroke-width="1" opacity="0.996078431372549" d="M 902.5 133 L 896.5 140 Q 893.5 138.5 896.5 137 Q 897.8 139.3 899 136.5 Q 898.3 134.3 900.5 135 L 902.5 133 Z " /><path fill="rgb(254,177,107)" stroke="rgb(254,177,107)" stroke-width="1" opacity="0.996078431372549" d="M 894.5 141 L 888.5 148 L 894.5 141 Z " /><path fill="rgb(254,177,107)" stroke="rgb(254,177,107)" stroke-width="1" opacity="0.996078431372549" d="M 885.5 145 L 884.5 147 L 885.5 145 Z " /><path fill="rgb(254,177,107)" stroke="rgb(254,177,107)" stroke-width="1" opacity="0.996078431372549" d="M 962.5 149 L 951.5 161 L 962.5 149 Z " /><path fill="rgb(254,177,107)" stroke="rgb(254,177,107)" stroke-width="1" opacity="0.996078431372549" d="M 874.5 153 L 873.5 155 L 874.5 153 Z " /><path fill="rgb(254,177,107)" stroke="rgb(254,177,107)" stroke-width="1" opacity="0.996078431372549" d="M 863.5 161 L 862.5 163 L 863.5 161 Z " /><path fill="rgb(254,177,107)" stroke="rgb(254,177,107)" stroke-width="1" opacity="0.996078431372549" d="M 852.5 169 L 851.5 171 L 852.5 169 Z " /><path fill="rgb(254,177,107)" stroke="rgb(254,177,107)" stroke-width="1" opacity="0.996078431372549" d="M 841.5 177 L 840.5 179 L 841.5 177 Z " /><path fill="rgb(254,177,107)" stroke="rgb(254,177,107)" stroke-width="1" opacity="0.996078431372549" d="M 830.5 185 L 829.5 187 L 830.5 185 Z " /><path fill="rgb(254,177,107)" stroke="rgb(254,177,107)" stroke-width="1" opacity="0.996078431372549" d="M 819.5 193 L 818.5 195 L 819.5 193 Z " /><path fill="rgb(254,177,107)" stroke="rgb(254,177,107)" stroke-width="1" opacity="0.996078431372549" d="M 808.5 201 L 807.5 203 L 808.5 201 Z " /><path fill="rgb(254,177,107)" stroke="rgb(254,177,107)" stroke-width="1" opacity="0.996078431372549" d="M 797.5 209 L 796.5 211 L 797.5 209 Z " /><path fill="rgb(254,177,107)" stroke="rgb(254,177,107)" stroke-width="1" opacity="0.996078431372549" d="M 786.5 217 L 785.5 219 L 786.5 217 Z " /><path fill="rgb(254,177,107)" stroke="rgb(254,177,107)" stroke-width="1" opacity="0.996078431372549" d="M 775.5 225 L 774.5 227 L 775.5 225 Z " /><path fill="rgb(254,177,107)" stroke="rgb(254,177,107)" stroke-width="1" opacity="0.996078431372549" d="M 764.5 233 L 763.5 235 L 764.5 233 Z " /><path fill="rgb(254,177,107)" stroke="rgb(254,177,107)" stroke-width="1" opacity="0.996078431372549" d="M 753.5 241 L 752.5 243 L 753.5 241 Z " /><path fill="rgb(254,177,107)" stroke="rgb(254,177,107)" stroke-width="1" opacity="0.996078431372549" d="M 793.5 241 L 782.5 253 L 793.5 241 Z " /><path fill="rgb(254,177,107)" stroke="rgb(254,177,107)" stroke-width="1" opacity="0.996078431372549" d="M 742.5 249 L 741.5 251 L 742.5 249 Z " /><path fill="rgb(254,177,107)" stroke="rgb(254,177,107)" stroke-width="1" opacity="0.996078431372549" d="M 780.5 254 L 752.5 283 L 780.5 254 Z " /><path fill="rgb(254,177,107)" stroke="rgb(254,177,107)" stroke-width="1" opacity="0.996078431372549" d="M 731.5 257 L 730.5 259 L 731.5 257 Z " /><path fill="rgb(254,177,107)" stroke="rgb(254,177,107)" stroke-width="1" opacity="0.996078431372549" d="M 849.5 261 L 843.5 268 L 849.5 261 Z " /><path fill="rgb(254,177,107)" stroke="rgb(254,177,107)" stroke-width="1" opacity="0.996078431372549" d="M 720.5 265 L 719.5 267 L 720.5 265 Z " /><path fill="rgb(254,177,107)" stroke="rgb(254,177,107)" stroke-width="1" opacity="0.996078431372549" d="M 841.5 269 L 813.5 298 L 841.5 269 Z " /><path fill="rgb(254,177,107)" stroke="rgb(254,177,107)" stroke-width="1" opacity="0.996078431372549" d="M 709.5 273 L 708.5 275 L 709.5 273 Z " /><path fill="rgb(254,177,107)" stroke="rgb(254,177,107)" stroke-width="1" opacity="0.996078431372549" d="M 698.5 281 L 697.5 283 L 698.5 281 Z " /><path fill="rgb(254,177,107)" stroke="rgb(254,177,107)" stroke-width="1" opacity="0.996078431372549" d="M 750.5 284 L 743.5 292 L 750.5 284 Z " /><path fill="rgb(254,177,107)" stroke="rgb(254,177,107)" stroke-width="1" opacity="0.996078431372549" d="M 687.5 289 L 686.5 291 L 687.5 289 Z " /><path fill="rgb(254,177,107)" stroke="rgb(254,177,107)" stroke-width="1" opacity="0.996078431372549" d="M 676.5 297 L 675.5 299 L 676.5 297 Z " /><path fill="rgb(254,177,107)" stroke="rgb(254,177,107)" stroke-width="1" opacity="0.996078431372549" d="M 811.5 299 L 800.5 311 L 811.5 299 Z " /><path fill="rgb(254,177,107)" stroke="rgb(254,177,107)" stroke-width="1" opacity="0.996078431372549" d="M 665.5 305 L 664.5 307 L 665.5 305 Z " /><path fill="rgb(254,177,107)" stroke="rgb(254,177,107)" stroke-width="1" opacity="0.996078431372549" d="M 654.5 313 L 653.5 315 L 654.5 313 Z " /><path fill="rgb(254,177,107)" stroke="rgb(254,177,107)" stroke-width="1" opacity="0.996078431372549" d="M 643.5 321 L 642.5 323 L 643.5 321 Z " /><path fill="rgb(254,177,107)" stroke="rgb(254,177,107)" stroke-width="1" opacity="0.996078431372549" d="M 632.5 329 L 631.5 331 L 632.5 329 Z " /><path fill="rgb(254,177,107)" stroke="rgb(254,177,107)" stroke-width="1" opacity="0.996078431372549" d="M 621.5 337 L 620.5 339 L 621.5 337 Z " /><path fill="rgb(254,177,107)" stroke="rgb(254,177,107)" stroke-width="1" opacity="0.996078431372549" d="M 610.5 345 L 609.5 347 L 610.5 345 Z " /><path fill="rgb(254,177,107)" stroke="rgb(254,177,107)" stroke-width="1" opacity="0.996078431372549" d="M 599.5 353 L 598.5 355 L 599.5 353 Z " /><path fill="rgb(254,177,107)" stroke="rgb(254,177,107)" stroke-width="1" opacity="0.996078431372549" d="M 588.5 361 L 587.5 363 L 588.5 361 Z " /><path fill="rgb(254,177,107)" stroke="rgb(254,177,107)" stroke-width="1" opacity="0.996078431372549" d="M 577.5 369 L 576.5 371 L 577.5 369 Z " /><path fill="rgb(254,177,107)" stroke="rgb(254,177,107)" stroke-width="1" opacity="0.996078431372549" d="M 566.5 377 L 565.5 379 L 566.5 377 Z " /><path fill="rgb(254,177,107)" stroke="rgb(254,177,107)" stroke-width="1" opacity="0.996078431372549" d="M 555.5 385 L 554.5 387 L 555.5 385 Z " /><path fill="rgb(254,177,107)" stroke="rgb(254,177,107)" stroke-width="1" opacity="0.996078431372549" d="M 647.5 386 L 639.5 395 L 647.5 386 Z " /><path fill="rgb(254,177,107)" stroke="rgb(254,177,107)" stroke-width="1" opacity="0.996078431372549" d="M 544.5 393 L 543.5 395 L 544.5 393 Z " /><path fill="rgb(254,177,107)" stroke="rgb(254,177,107)" stroke-width="1" opacity="0.996078431372549" d="M 637.5 396 L 608.5 426 L 637.5 396 Z " /><path fill="rgb(254,177,107)" stroke="rgb(254,177,107)" stroke-width="1" opacity="0.996078431372549" d="M 533.5 401 L 532.5 403 L 533.5 401 Z " /><path fill="rgb(254,177,107)" stroke="rgb(254,177,107)" stroke-width="1" opacity="0.996078431372549" d="M 703.5 406 L 659.5 451 L 703.5 406 Z " /><path fill="rgb(254,177,107)" stroke="rgb(254,177,107)" stroke-width="1" opacity="0.996078431372549" d="M 522.5 409 L 521.5 411 L 522.5 409 Z " /><path fill="rgb(254,177,107)" stroke="rgb(254,177,107)" stroke-width="1" opacity="0.996078431372549" d="M 511.5 417 L 510.5 419 L 511.5 417 Z " /><path fill="rgb(254,177,107)" stroke="rgb(254,177,107)" stroke-width="1" opacity="0.996078431372549" d="M 500.5 425 L 499.5 427 L 500.5 425 Z " /><path fill="rgb(254,177,107)" stroke="rgb(254,177,107)" stroke-width="1" opacity="0.996078431372549" d="M 606.5 427 L 600.5 434 L 606.5 427 Z " /><path fill="rgb(254,177,107)" stroke="rgb(254,177,107)" stroke-width="1" opacity="0.996078431372549" d="M 489.5 433 L 488.5 435 L 489.5 433 Z " /><path fill="rgb(254,177,107)" stroke="rgb(254,177,107)" stroke-width="1" opacity="0.996078431372549" d="M 478.5 441 L 477.5 443 L 478.5 441 Z " /><path fill="rgb(254,177,107)" stroke="rgb(254,177,107)" stroke-width="1" opacity="0.996078431372549" d="M 467.5 449 L 466.5 451 L 467.5 449 Z " /><path fill="rgb(254,177,107)" stroke="rgb(254,177,107)" stroke-width="1" opacity="0.996078431372549" d="M 51.5 457 L 52.5 459 L 50 458.5 L 51.5 457 Z " /><path fill="rgb(254,177,107)" stroke="rgb(254,177,107)" stroke-width="1" opacity="0.996078431372549" d="M 56.5 461 L 57.5 463 L 56.5 461 Z " /><path fill="rgb(254,177,107)" stroke="rgb(254,177,107)" stroke-width="1" opacity="0.996078431372549" d="M 67.5 470 L 68.5 472 L 67.5 470 Z " /><path fill="rgb(254,177,107)" stroke="rgb(254,177,107)" stroke-width="1" opacity="0.996078431372549" d="M 72.5 474 L 73.5 476 L 72.5 474 Z " /><path fill="rgb(254,177,107)" stroke="rgb(254,177,107)" stroke-width="1" opacity="0.996078431372549" d="M 83.5 483 L 84.5 485 L 83.5 483 Z " /><path fill="rgb(254,177,107)" stroke="rgb(254,177,107)" stroke-width="1" opacity="0.996078431372549" d="M 88.5 487 L 89.5 489 L 88.5 487 Z " /><path fill="rgb(254,177,107)" stroke="rgb(254,177,107)" stroke-width="1" opacity="0.996078431372549" d="M 99.5 496 L 100.5 498 L 99.5 496 Z " /><path fill="rgb(254,177,107)" stroke="rgb(254,177,107)" stroke-width="1" opacity="0.996078431372549" d="M 104.5 500 L 105.5 502 L 104.5 500 Z " /><path fill="rgb(254,177,107)" stroke="rgb(254,177,107)" stroke-width="1" opacity="0.996078431372549" d="M 115.5 509 L 116.5 511 L 115.5 509 Z " /><path fill="rgb(254,177,107)" stroke="rgb(254,177,107)" stroke-width="1" opacity="0.996078431372549" d="M 120.5 513 L 121.5 515 L 120.5 513 Z " /><path fill="rgb(254,177,107)" stroke="rgb(254,177,107)" stroke-width="1" opacity="0.996078431372549" d="M 131.5 522 L 132.5 524 L 131.5 522 Z " /><path fill="rgb(254,177,107)" stroke="rgb(254,177,107)" stroke-width="1" opacity="0.996078431372549" d="M 506.5 526 L 495.5 538 L 506.5 526 Z " /><path fill="rgb(254,177,107)" stroke="rgb(254,177,107)" stroke-width="1" opacity="0.996078431372549" d="M 142.5 531 L 143.5 533 L 142.5 531 Z " /><path fill="rgb(254,177,107)" stroke="rgb(254,177,107)" stroke-width="1" opacity="0.996078431372549" d="M 147.5 535 L 148.5 537 L 147.5 535 Z " /><path fill="rgb(254,177,107)" stroke="rgb(254,177,107)" stroke-width="1" opacity="0.996078431372549" d="M 493.5 539 L 465.5 568 L 493.5 539 Z " /><path fill="rgb(254,177,107)" stroke="rgb(254,177,107)" stroke-width="1" opacity="0.996078431372549" d="M 158.5 544 L 159.5 546 L 158.5 544 Z " /><path fill="rgb(254,177,107)" stroke="rgb(254,177,107)" stroke-width="1" opacity="0.996078431372549" d="M 163.5 548 L 164.5 550 L 163.5 548 Z " /><path fill="rgb(254,177,107)" stroke="rgb(254,177,107)" stroke-width="1" opacity="0.996078431372549" d="M 174.5 557 L 175.5 559 L 174.5 557 Z " /><path fill="rgb(254,177,107)" stroke="rgb(254,177,107)" stroke-width="1" opacity="0.996078431372549" d="M 179.5 561 L 180.5 563 L 179.5 561 Z " /><path fill="rgb(254,177,107)" stroke="rgb(254,177,107)" stroke-width="1" opacity="0.996078431372549" d="M 463.5 569 L 456.5 577 L 463.5 569 Z " /><path fill="rgb(254,177,107)" stroke="rgb(254,177,107)" stroke-width="1" opacity="0.996078431372549" d="M 190.5 570 L 191.5 572 L 190.5 570 Z " /><path fill="rgb(254,177,107)" stroke="rgb(254,177,107)" stroke-width="1" opacity="0.996078431372549" d="M 195.5 574 L 196.5 576 L 195.5 574 Z " /><path fill="rgb(254,177,107)" stroke="rgb(254,177,107)" stroke-width="1" opacity="0.996078431372549" d="M 201.5 579 L 202.5 581 L 201.5 579 Z " /><path fill="rgb(254,177,107)" stroke="rgb(254,177,107)" stroke-width="1" opacity="0.996078431372549" d="M 280.5 585 L 279.5 587 L 280.5 585 Z " /><path fill="rgb(254,177,107)" stroke="rgb(254,177,107)" stroke-width="1" opacity="0.996078431372549" d="M 519.5 589 L 510.5 599 L 519.5 589 Z " /><path fill="rgb(254,177,107)" stroke="rgb(254,177,107)" stroke-width="1" opacity="0.996078431372549" d="M 217.5 592 L 218.5 594 L 217.5 592 Z " /><path fill="rgb(254,177,107)" stroke="rgb(254,177,107)" stroke-width="1" opacity="0.996078431372549" d="M 269.5 593 L 268.5 595 L 269.5 593 Z " /><path fill="rgb(254,177,107)" stroke="rgb(254,177,107)" stroke-width="1" opacity="0.996078431372549" d="M 222.5 596 L 223.5 598 L 222.5 596 Z " /><path fill="rgb(254,177,107)" stroke="rgb(254,177,107)" stroke-width="1" opacity="0.996078431372549" d="M 258.5 601 L 257.5 603 L 258.5 601 Z " /><path fill="rgb(254,177,107)" stroke="rgb(254,177,107)" stroke-width="1" opacity="0.996078431372549" d="M 233.5 605 L 234.5 607 L 233.5 605 Z " /><path fill="rgb(254,177,107)" stroke="rgb(254,177,107)" stroke-width="1" opacity="0.996078431372549" d="M 238.5 609 L 239.5 611 L 238.5 609 Z " /><path fill="rgb(254,177,107)" stroke="rgb(254,177,107)" stroke-width="1" opacity="0.996078431372549" d="M 247.5 609 L 246.5 611 L 247.5 609 Z " /><path fill="rgb(254,177,107)" stroke="rgb(254,177,107)" stroke-width="1" opacity="0.996078431372549" d="M 363.5 668 L 352.5 680 L 363.5 668 Z " /><path fill="rgb(254,177,107)" stroke="rgb(254,177,107)" stroke-width="1" opacity="0.996078431372549" d="M 350.5 681 L 313.5 719 L 350.5 681 Z " /><path fill="rgb(254,177,107)" stroke="rgb(254,177,107)" stroke-width="1" opacity="0.996078431372549" d="M 421.5 686 L 416.5 692 L 421.5 686 Z " /><path fill="rgb(254,177,107)" stroke="rgb(254,177,107)" stroke-width="1" opacity="0.996078431372549" d="M 414.5 693 L 390.5 718 L 414.5 693 Z " /><path fill="rgb(254,177,107)" stroke="rgb(254,177,107)" stroke-width="1" opacity="0.996078431372549" d="M 388.5 719 L 379.5 729 L 388.5 719 Z " /><path fill="rgb(255,178,107)" stroke="rgb(255,178,107)" stroke-width="1" opacity="1" d="M 980.5 132 L 981 775 L 793 775 L 793 317.5 L 812 299.5 Q 811.3 297.3 813.5 298 L 842 269.5 L 842 268 L 843.5 268 L 963 149.5 Q 962.3 147.3 964.5 148 L 980.5 132 Z " /><path fill="rgb(255,178,107)" stroke="rgb(255,178,107)" stroke-width="1" opacity="1" d="M 898.5 136 L 896 139.5 Q 896.8 141.8 894.5 141 L 782 252.5 Q 782.8 254.8 780.5 254 L 752 282.5 L 752 284 L 750.5 284 L 639 394.5 Q 639.8 396.8 637.5 396 L 608 425.5 L 608 427 L 606.5 427 L 495 537.5 Q 495.8 539.8 493.5 539 L 465 567.5 L 465 569 L 463.5 569 L 352 679.5 Q 352.8 681.8 350.5 681 L 256 774.5 L 49 456.5 L 52.5 459 L 243.5 613 L 286.5 581 L 291 579 Q 289.9 576.3 292.5 577 L 302 571 Q 300.9 568.3 303.5 569 L 313 563 Q 311.9 560.3 314.5 561 L 324 555 Q 322.9 552.3 325.5 553 L 335 547 Q 333.9 544.3 336.5 545 L 346 539 Q 344.9 536.3 347.5 537 L 357 531 Q 355.9 528.3 358.5 529 L 368 523 Q 366.9 520.3 369.5 521 L 379 515 Q 377.9 512.3 380.5 513 L 390 507 Q 388.9 504.3 391.5 505 L 401 499 Q 399.9 496.3 402.5 497 L 412 491 Q 410.9 488.3 413.5 489 L 423 483 Q 421.9 480.3 424.5 481 L 434 475 Q 432.9 472.3 435.5 473 L 445 467 Q 443.9 464.3 446.5 465 L 456 459 Q 454.9 456.3 457.5 457 L 898.5 136 Z " /><path fill="rgb(255,178,107)" stroke="rgb(255,178,107)" stroke-width="1" opacity="1" d="M 736.5 374 L 737 775 L 576 775 L 576 533.5 L 736.5 374 Z " /><path fill="rgb(255,178,107)" stroke="rgb(255,178,107)" stroke-width="1" opacity="1" d="M 519.5 590 L 520 775 L 333 774.5 L 389 719.5 Q 388.3 717.3 390.5 718 L 415 693.5 L 415 692 L 416.5 692 L 519.5 590 Z " /></svg>