<?xml version="1.0" encoding="UTF-8"?>
<svg version="1.1" viewBox="0 0 1052 1148" width="263" height="287" xmlns="http://www.w3.org/2000/svg">
<path transform="translate(0)" d="m0 0h1052v1148h-1052z" fill="#273460"/>
<path transform="translate(841,99)" d="m0 0 4 1v992l152-1v-811l1-3h-57l-2-1v-14l23-1h49l2 5v838l-1 1h-180l-1-6v-986h-164v454l-1 538h-60l1-652h-166v652h-60v-504l1-25h-165l-1 529h-181v-774l1-69 70-1h369l49 1v14l-44 1h-304l-125-1v815l152 1v-530l24-1h167l1 1v530l32-1v-568l1-83 190-1 2 1v652l32-1v-923l1-68z" fill="#EBB380"/>
</svg>
